<?xml version="1.0" standalone="no"?><!DOCTYPE svg PUBLIC "-//W3C//DTD SVG 1.1//EN" "http://www.w3.org/Graphics/SVG/1.1/DTD/svg11.dtd"><svg t="1758449123333" class="icon" viewBox="0 0 1024 1024" version="1.1" xmlns="http://www.w3.org/2000/svg" p-id="4730" xmlns:xlink="http://www.w3.org/1999/xlink" width="200" height="200"><path d="M921.6 716.8c0 135.72096-109.91616 245.76-245.51424 245.76h-122.75712a244.81792 244.81792 0 0 1-184.15616-83.2512L125.48096 622.3872a84.13184 84.13184 0 0 1 1.51552-117.32992 81.77664 81.77664 0 0 1 115.73248 0l85.56544 85.64736V143.36c0-45.2608 36.63872-81.92 81.83808-81.92a81.87904 81.87904 0 0 1 81.83808 81.92v194.56c0-39.58784 32.0512-71.68 71.59808-71.68a71.63904 71.63904 0 0 1 71.59808 71.68v40.96c0-39.58784 32.07168-71.68 71.61856-71.68a71.63904 71.63904 0 0 1 71.59808 71.68v61.44c0-39.58784 32.07168-71.68 71.61856-71.68A71.63904 71.63904 0 0 1 921.6 440.32V716.8z" fill="#1afa29" p-id="4731"></path></svg>